<mxfile host="app.diagrams.net" modified="2024-04-24T03:18:21.021Z" agent="Mozilla/5.0 (Macintosh; Intel Mac OS X 10_15_7) AppleWebKit/537.36 (KHTML, like Gecko) Chrome/123.0.0.0 Safari/537.36" version="22.1.18" etag="HnLsIQGEIcNnS7JNmNT7" type="github">
  <diagram name="第 1 页" id="C9DgtOjY2GtrjT4r2VGu">
    <mxGraphModel>
      <root>
        <mxCell id="0" />
        <mxCell id="1" parent="0" />
      </root>
    </mxGraphModel>
  </diagram>
</mxfile>
